<svg width="18" height="18" viewBox="0 0 18 18" fill="none" xmlns="http://www.w3.org/2000/svg">
<path d="M6.75 6.75C6.75 5.475 7.725 4.5 9 4.5C10.275 4.5 11.25 5.475 11.25 6.75C11.25 8.025 10.275 9 9 9C7.725 9 6.75 8.025 6.75 6.75ZM9 10.5C5.55 10.5 4.5 12.975 4.5 12.975V14.25H13.5V12.975C13.5 12.975 12.45 10.5 9 10.5Z" fill="#AFAFAF"/>
<path d="M13.875 8.25C14.9105 8.25 15.75 7.41053 15.75 6.375C15.75 5.33947 14.9105 4.5 13.875 4.5C12.8395 4.5 12 5.33947 12 6.375C12 7.41053 12.8395 8.25 13.875 8.25Z" fill="#AFAFAF"/>
<path d="M13.8754 9.75C12.9754 9.75 12.3004 9.975 11.7754 10.35C13.5004 11.175 14.1754 12.6 14.1754 12.75V12.825H17.2504V11.85C17.2504 11.775 16.4254 9.75 13.8754 9.75Z" fill="#AFAFAF"/>
<path d="M13.875 8.25C14.9105 8.25 15.75 7.41053 15.75 6.375C15.75 5.33947 14.9105 4.5 13.875 4.5C12.8395 4.5 12 5.33947 12 6.375C12 7.41053 12.8395 8.25 13.875 8.25Z" fill="#AFAFAF"/>
<path d="M13.8754 9.75C12.9754 9.75 12.3004 9.975 11.7754 10.35C13.5004 11.175 14.1754 12.6 14.1754 12.75V12.825H17.2504V11.85C17.2504 11.775 16.4254 9.75 13.8754 9.75Z" fill="#AFAFAF"/>
<path d="M4.125 8.25C5.16053 8.25 6 7.41053 6 6.375C6 5.33947 5.16053 4.5 4.125 4.5C3.08947 4.5 2.25 5.33947 2.25 6.375C2.25 7.41053 3.08947 8.25 4.125 8.25Z" fill="#AFAFAF"/>
<path d="M4.125 9.75C5.025 9.75 5.7 9.975 6.225 10.35C4.5 11.175 3.825 12.6 3.825 12.75V12.825H0.75V11.85C0.75 11.775 1.575 9.75 4.125 9.75Z" fill="#AFAFAF"/>
</svg>
