<svg width="10" height="17" viewBox="0 0 10 17" fill="none" xmlns="http://www.w3.org/2000/svg">
<path d="M9.26127 14.4224H1.18311V1.32835H9.26127V14.4224ZM4.59358 15.7519C4.59358 15.3919 4.8827 15.0999 5.23939 15.0999C5.59621 15.0999 5.88521 15.3919 5.88521 15.7519C5.88521 16.1118 5.59621 16.4043 5.23939 16.4043C4.8827 16.4038 4.59358 16.1118 4.59358 15.7519ZM9.80327 16.3437H9.80437V0.651547V0.651425V0.648253H9.80413C9.80242 0.28997 9.51172 0 9.15282 0C9.15026 0 9.14819 0.000243979 9.14587 0.000243979V0H7.68236H3.41272H1.29156C0.933157 0.000243979 0.642699 0.290214 0.640747 0.648253H0.640625V16.3436H0.641601C0.641357 16.3504 0.640625 16.3571 0.640625 16.3642C0.640625 16.7153 0.935719 17 1.29986 17C1.30523 17 1.31047 16.9993 1.31584 16.9991V17H9.16173C9.51599 17 9.80425 16.7154 9.80425 16.3642C9.80437 16.3572 9.80352 16.3504 9.80327 16.3437Z" fill="#FF0000"/>
</svg>
