<svg width="10" height="17" viewBox="0 0 10 17" fill="none" xmlns="http://www.w3.org/2000/svg">
<path d="M9.25932 14.4224H1.18116V1.32835H9.25932V14.4224ZM4.59163 15.7519C4.59163 15.3919 4.88074 15.0999 5.23744 15.0999C5.59426 15.0999 5.88325 15.3919 5.88325 15.7519C5.88325 16.1118 5.59426 16.4043 5.23744 16.4043C4.88074 16.4038 4.59163 16.1118 4.59163 15.7519ZM9.80132 16.3437H9.80242V0.651547V0.651425V0.648253H9.80217C9.80047 0.28997 9.50976 0 9.15087 0C9.14831 0 9.14624 0.000243979 9.14392 0.000243979V0H7.68041H3.41077H1.28961C0.931204 0.000243979 0.640746 0.290214 0.638794 0.648253H0.638672V16.3436H0.639648C0.639404 16.3504 0.638672 16.3571 0.638672 16.3642C0.638672 16.7153 0.933765 17 1.2979 17C1.30327 17 1.30852 16.9993 1.31388 16.9991V17H9.15978C9.51403 17 9.8023 16.7154 9.8023 16.3642C9.80242 16.3572 9.80156 16.3504 9.80132 16.3437Z" fill="white"/>
</svg>
