<svg width="16" height="17" viewBox="0 0 16 17" fill="none" xmlns="http://www.w3.org/2000/svg">
<path d="M1.23077 15.7857H4V13.0536H1.23077V15.7857ZM4.61538 15.7857H7.69231V13.0536H4.61538V15.7857ZM1.23077 12.4464H4V9.41071H1.23077V12.4464ZM4.61538 12.4464H7.69231V9.41071H4.61538V12.4464ZM1.23077 8.80357H4V6.07143H1.23077V8.80357ZM8.30769 15.7857H11.3846V13.0536H8.30769V15.7857ZM4.61538 8.80357H7.69231V6.07143H4.61538V8.80357ZM12 15.7857H14.7692V13.0536H12V15.7857ZM8.30769 12.4464H11.3846V9.41071H8.30769V12.4464ZM4.92308 4.25V1.51786C4.92308 1.43564 4.89263 1.36449 4.83173 1.30441C4.77083 1.24433 4.69872 1.21429 4.61538 1.21429H4C3.91667 1.21429 3.84455 1.24433 3.78365 1.30441C3.72276 1.36449 3.69231 1.43564 3.69231 1.51786V4.25C3.69231 4.33222 3.72276 4.40337 3.78365 4.46345C3.84455 4.52353 3.91667 4.55357 4 4.55357H4.61538C4.69872 4.55357 4.77083 4.52353 4.83173 4.46345C4.89263 4.40337 4.92308 4.33222 4.92308 4.25ZM12 12.4464H14.7692V9.41071H12V12.4464ZM8.30769 8.80357H11.3846V6.07143H8.30769V8.80357ZM12 8.80357H14.7692V6.07143H12V8.80357ZM12.3077 4.25V1.51786C12.3077 1.43564 12.2772 1.36449 12.2163 1.30441C12.1554 1.24433 12.0833 1.21429 12 1.21429H11.3846C11.3013 1.21429 11.2292 1.24433 11.1683 1.30441C11.1074 1.36449 11.0769 1.43564 11.0769 1.51786V4.25C11.0769 4.33222 11.1074 4.40337 11.1683 4.46345C11.2292 4.52353 11.3013 4.55357 11.3846 4.55357H12C12.0833 4.55357 12.1554 4.52353 12.2163 4.46345C12.2772 4.40337 12.3077 4.33222 12.3077 4.25ZM16 3.64286V15.7857C16 16.1146 15.8782 16.3992 15.6346 16.6395C15.391 16.8798 15.1026 17 14.7692 17H1.23077C0.897436 17 0.608974 16.8798 0.365385 16.6395C0.121795 16.3992 0 16.1146 0 15.7857V3.64286C0 3.31399 0.121795 3.02939 0.365385 2.78906C0.608974 2.54874 0.897436 2.42857 1.23077 2.42857H2.46154V1.51786C2.46154 1.10045 2.61218 0.743118 2.91346 0.445871C3.21474 0.148624 3.57692 0 4 0H4.61538C5.03846 0 5.40064 0.148624 5.70192 0.445871C6.00321 0.743118 6.15385 1.10045 6.15385 1.51786V2.42857H9.84615V1.51786C9.84615 1.10045 9.9968 0.743118 10.2981 0.445871C10.5994 0.148624 10.9615 0 11.3846 0H12C12.4231 0 12.7853 0.148624 13.0865 0.445871C13.3878 0.743118 13.5385 1.10045 13.5385 1.51786V2.42857H14.7692C15.1026 2.42857 15.391 2.54874 15.6346 2.78906C15.8782 3.02939 16 3.31399 16 3.64286Z" fill="#C8C8C8"/>
</svg>
